<svg viewBox="0 0 1024 1024"><path d="M768 512c0-70.699-28.715-134.741-74.965-181.035s-110.336-74.965-181.035-74.965-134.741 28.715-181.035 74.965-74.965 110.336-74.965 181.035 28.715 134.741 74.965 181.035 110.336 74.965 181.035 74.965 134.741-28.715 181.035-74.965 74.965-110.336 74.965-181.035zM682.667 512c0 47.147-19.072 89.728-50.005 120.661s-73.515 50.005-120.661 50.005-89.728-19.072-120.661-50.005-50.005-73.515-50.005-120.661 19.072-89.728 50.005-120.661 73.515-50.005 120.661-50.005 89.728 19.072 120.661 50.005 50.005 73.515 50.005 120.661zM469.333 42.667v85.333c0 23.552 19.115 42.667 42.667 42.667s42.667-19.115 42.667-42.667v-85.333c0-23.552-19.115-42.667-42.667-42.667s-42.667 19.115-42.667 42.667zM469.333 896v85.333c0 23.552 19.115 42.667 42.667 42.667s42.667-19.115 42.667-42.667v-85.333c0-23.552-19.115-42.667-42.667-42.667s-42.667 19.115-42.667 42.667zM149.888 210.219l60.587 60.587c16.683 16.683 43.691 16.683 60.331 0s16.683-43.691 0-60.331l-60.587-60.587c-16.683-16.683-43.691-16.683-60.331 0s-16.683 43.691 0 60.331zM753.195 813.525l60.587 60.587c16.683 16.683 43.691 16.683 60.331 0s16.683-43.691 0-60.331l-60.587-60.587c-16.683-16.683-43.691-16.683-60.331 0s-16.683 43.691 0 60.331zM42.667 554.667h85.333c23.552 0 42.667-19.115 42.667-42.667s-19.115-42.667-42.667-42.667h-85.333c-23.552 0-42.667 19.115-42.667 42.667s19.115 42.667 42.667 42.667zM896 554.667h85.333c23.552 0 42.667-19.115 42.667-42.667s-19.115-42.667-42.667-42.667h-85.333c-23.552 0-42.667 19.115-42.667 42.667s19.115 42.667 42.667 42.667zM210.219 874.112l60.587-60.587c16.683-16.683 16.683-43.691 0-60.331s-43.691-16.683-60.331 0l-60.587 60.587c-16.683 16.683-16.683 43.691 0 60.331s43.691 16.683 60.331 0zM813.525 270.805l60.587-60.587c16.683-16.683 16.683-43.691 0-60.331s-43.691-16.683-60.331 0l-60.587 60.587c-16.683 16.683-16.683 43.691 0 60.331s43.691 16.683 60.331 0z"></path></svg>