<?xml version="1.0" encoding="UTF-8" standalone="no"?>
<!DOCTYPE svg PUBLIC "-//W3C//DTD SVG 1.1//EN" "http://www.w3.org/Graphics/SVG/1.1/DTD/svg11.dtd">
<svg version="1.1" xmlns="http://www.w3.org/2000/svg" xmlns:xlink="http://www.w3.org/1999/xlink" preserveAspectRatio="xMidYMid meet" viewBox="0 0 640 640" width="640" height="640"><defs><path d="M160 314.04L0 588.08L320.01 588.08L640 588.08L480.02 314.04L320.01 40L160 314.04Z" id="eDFWUAR4Z"></path><path d="M193.2 334.74L70.93 549.48L315.47 549.48L560 549.48L437.75 334.74L315.47 120L193.2 334.74Z" id="b1TGqe2u3x"></path></defs><g><g><g><use xlink:href="#eDFWUAR4Z" opacity="1" fill="#ffffff" fill-opacity="1"></use><g><use xlink:href="#eDFWUAR4Z" opacity="1" fill-opacity="0" stroke="#333333" stroke-width="4" stroke-opacity="1"></use></g></g><g><g><filter id="shadow14651408" x="61.93" y="111" width="508.07" height="448.48" filterUnits="userSpaceOnUse" primitiveUnits="userSpaceOnUse"><feFlood></feFlood><feComposite in2="SourceAlpha" operator="in"></feComposite><feGaussianBlur stdDeviation="1"></feGaussianBlur><feOffset dx="1" dy="1" result="afterOffset"></feOffset><feFlood flood-color="#000000" flood-opacity="0.5"></feFlood><feComposite in2="afterOffset" operator="in"></feComposite><feMorphology operator="dilate" radius="1"></feMorphology><feComposite in2="SourceAlpha" operator="out"></feComposite></filter><path d="M193.2 334.74L70.93 549.48L315.47 549.48L560 549.48L437.75 334.74L315.47 120L193.2 334.74Z" id="buj3LMgPT" fill="white" fill-opacity="1" filter="url(#shadow14651408)"></path></g><use xlink:href="#b1TGqe2u3x" opacity="1" fill="#ffff00" fill-opacity="1"></use><g><use xlink:href="#b1TGqe2u3x" opacity="1" fill-opacity="0" stroke="#ffff00" stroke-width="4" stroke-opacity="1"></use></g><g><filter id="shadow8287723" x="61.93" y="111" width="508.07" height="448.48" filterUnits="userSpaceOnUse" primitiveUnits="userSpaceOnUse"><feFlood></feFlood><feComposite in2="SourceAlpha" operator="out"></feComposite><feGaussianBlur stdDeviation="1"></feGaussianBlur><feOffset dx="1" dy="1" result="afterOffset"></feOffset><feFlood flood-color="#ffffff" flood-opacity="0.8"></feFlood><feComposite in2="afterOffset" operator="in"></feComposite><feMorphology operator="dilate" radius="1"></feMorphology><feComposite in2="SourceAlpha" operator="in"></feComposite></filter><path d="M193.2 334.74L70.93 549.48L315.47 549.48L560 549.48L437.75 334.74L315.47 120L193.2 334.74Z" id="dzNEjiUVM" fill="white" fill-opacity="1" filter="url(#shadow8287723)"></path></g></g></g></g></svg>